# AST/ASF file generated using VICON BodyLanguage
# -----------------------------------------------
:version 1.10
:name VICON
:units
  mass 1.0
  length 0.45
  angle deg
:documentation
   .ast/.asf automatically generated from VICON data using
   VICON BodyBuilder and BodyLanguage model FoxedUp or BRILLIANT.MOD
:root
   order TX TY TZ RX RY RZ
   axis XYZ
   position 0 0 0  
   orientation 0 0 0 
:bonedata
  begin
     id 1 
     name lhipjoint
     direction 0.560651 -0.75055 0.34978 
     length 2.44936 
     axis 0 0 0  XYZ
  end
  begin
     id 2 
     name lfemur
     direction 0.34202 -0.939693 0  
     length 7.42139  
     axis 0 0 20  XYZ
    dof rx ry rz
    limits (-160.0 20.0)
           (-70.0 70.0)
           (-60.0 70.0)
  end
  begin
     id 3 
     name ltibia
     direction 0.34202 -0.939693 0   
     length 7.75674   
     axis 0 0 20   XYZ
    dof rx
    limits (-10.0 170.0)
  end
  begin
     id 4 
     name lfoot
     direction 0.0925879 -0.254383 0.962661   
     length 2.38688   
     axis -90 7.62852e-016 20   XYZ
    dof rx rz
    limits (-45.0 90.0)
           (-70.0 20.0)
  end
  begin
     id 5 
     name ltoes
     direction 1.53567e-011 -4.21973e-011 1   
     length 1.19228   
     axis -90 7.62852e-016 20   XYZ
    dof rx
    limits (-90.0 20.0)
  end
  begin
     id 6 
     name rhipjoint
     direction -0.540087 -0.762838 0.355506   
     length 2.4099  
     axis 0 0 0  XYZ 
  end
  begin
     id 7 
     name rfemur
     direction -0.34202 -0.939693 0   
     length 7.70794   
     axis 0 0 -20   XYZ
    dof rx ry rz
    limits (-160.0 20.0)
           (-70.0 70.0)
           (-70.0 60.0)
  end
  begin
     id 8 
     name rtibia
     direction -0.34202 -0.939693 0   
     length 7.66106   
     axis 0 0 -20   XYZ
    dof rx
    limits (-10.0 170.0)
 end
 begin
     id 9 
     name rfoot
     direction -0.0830975 -0.228308 0.970036   
     length 2.4989  
     axis -90 -7.62852e-016 -20   XYZ
    dof rx rz
    limits (-45.0 90.0)
           (-20.0 70.0)
  end
  begin
     id 10 
     name rtoes
     direction -1.53517e-011 -4.21842e-011 1   
     length 1.2498   
     axis -90 -7.62852e-016 -20   XYZ
    dof rx
    limits (-90.0 20.0)
  end
  begin
     id 11 
     name lowerback
     direction 0.0266356 0.99402 -0.105896   
     length 2.1545   
     axis 0 0 0   XYZ
    dof rx ry rz
    limits (-20.0 45.0)
           (-30.0 30.0)
           (-30.0 30.0)
  end
  begin
     id 12 
     name upperback
     direction 0.0130547 0.999192 0.0380027   
     length 2.1434   
     axis 0 0 0   XYZ
    dof rx ry rz
    limits (-20.0 45.0)
           (-30.0 30.0)
           (-30.0 30.0)
  end
  begin
     id 13 
     name thorax
     direction 0.000590299 0.996288 0.0860764   
     length 2.19049   
     axis 0 0 0   XYZ
    dof rx ry rz
    limits (-20.0 45.0)
           (-30.0 30.0)
           (-30.0 30.0)
  end
  begin
     id 14 
     name lowerneck
     direction -0.0432125 0.978219 0.203028   
     length 1.62441   
     axis 0 0 0   XYZ
    dof rx ry rz
    limits (-20.0 45.0)
           (-30.0 30.0)
           (-30.0 30.0)
  end
  begin
     id 15 
     name upperneck
     direction -0.0192309 0.991699 -0.127138   
     length 1.66666   
     axis 0 0 0   XYZ
    dof rx ry rz
    limits (-20.0 45.0)
           (-30.0 30.0)
           (-30.0 30.0)
  end
  begin
     id 16
     name head
     direction -0.00434499 0.997882 -0.0649107  
     length 1.67142  
     axis 0 0 0   XYZ
    dof rx ry rz
    limits (-20.0 45.0)
           (-30.0 30.0)
           (-30.0 30.0)
  end
  begin
     id 17 
     name lclavicle
     direction 0.970351 0.240904 -0.0196058  
     length 4.04862  
     axis 0 0 0   XYZ
    dof ry rz
    limits (-20.0 10.0)
           (0.0 20.0)
  end
  begin
     id 18 
     name lhumerus
     direction 1 -4.4896e-011 -1.40911e-018   
     length 5.58345   
     axis 180 -30 -90   XYZ
    dof rx ry rz
    limits (-60.0 90.0)
           (-90.0 90.0)
           (-90.0 90.0)
  end
  begin
     id 19
     name lradius
     direction 1 -4.48968e-011 5.88912e-028   
     length 3.71087   
     axis 180 -30 -90   XYZ
    dof rx
    limits (-10.0 170.0)
  end
  begin
     id 20
     name lwrist
     direction 1 -4.48955e-011 -8.83775e-028   
     length 1.85544   
     axis 5.52448e-016 90 90   XYZ
    dof ry
    limits (-180.0 0.0)
 end
  begin
     id 21 
     name lhand
     direction 1 -4.49035e-011 -1.76755e-027   
     length 0.562322   
     axis 1.12785e-015 90 90   XYZ
    dof rx rz
    limits (-90.0 90.0)
           (-45.0 45.0)
  end
  begin
     id 22 
     name lfingers
     direction 1 -4.48824e-011 -3.5351e-027   
     length 0.453359   
     axis 2.2557e-015 90 90   XYZ
    dof rx
    limits (0.0 90.0)
  end
  begin
     id 23
     name lthumb
     direction 0.707107 -6.34888e-011 0.707107   
     length 0.650935   
     axis -90 45 2.85299e-015   XYZ
    dof rx rz
    limits (-45.0 45.0)
           (-45.0 45.0)
  end
  begin
     id 24 
     name rclavicle
     direction -0.96165 0.268562 -0.0557131   
     length 4.05446  
     axis 0 0 0   XYZ 
    dof ry rz
    limits (-10.0 20.0)
           (-20.0 0.0)
  end
  begin
     id 25 
     name rhumerus
     direction -1 -4.48957e-011 -3.36329e-027  
     length 5.20357   
     axis 180 30 90   XYZ
    dof rx ry rz
    limits (-90.0 60.0)
           (-90.0 90.0)
           (-90.0 90.0)
  end
  begin
     id 26 
     name rradius
     direction -1 -4.48974e-011 4.51441e-027   
     length 3.64937   
     axis 180 30 90   XYZ
    dof rx
    limits (-10.0 170.0)
  end
  begin
     id 27 
     name rwrist
     direction -1 -4.4896e-011 -8.83775e-028   
     length 1.82468   
     axis 5.52448e-016 -90 -90   XYZ
    dof ry
    limits (-180.0 0.0)
  end
  begin
     id 28
     name rhand
     direction -1 -4.48996e-011 -1.76755e-027   
     length 0.617996   
     axis 1.12785e-015 -90 -90   XYZ
    dof rx rz
    limits (-90.0 90.0)
           (-45.0 45.0)
  end
  begin
     id 29
     name rfingers
     direction -1 -4.48957e-011 -3.5351e-027   
     length 0.498244   
     axis 2.2557e-015 -90 -90   XYZ
    dof rx
    limits (0.0 90.0)
  end
  begin
     id 30
     name rthumb
     direction -0.707107 -6.34931e-011 0.707107   
     length 0.715382   
     axis -90 -45 -2.85299e-015   XYZ
    dof rx rz
    limits (-45.0 45.0)
           (-45.0 45.0)
  end
:hierarchy
  begin
    root lhipjoint rhipjoint lowerback
    lhipjoint lfemur
    lfemur ltibia
    ltibia lfoot
    lfoot ltoes
    rhipjoint rfemur
    rfemur rtibia
    rtibia rfoot
    rfoot rtoes
    lowerback upperback
    upperback thorax
    thorax lowerneck lclavicle rclavicle
    lowerneck upperneck
    upperneck head
    lclavicle lhumerus
    lhumerus lradius
    lradius lwrist
    lwrist lhand lthumb
    lhand lfingers
    rclavicle rhumerus
    rhumerus rradius
    rradius rwrist
    rwrist rhand rthumb
    rhand rfingers
  end

#!OML:ASF H:\ManfredETheater\Project 1\Capture day 2\Session 1\Male1.ASF
:FULLY-SPECIFIED
:DEGREES
237
root -12.0891 16.8776 -26.3888 176.96 -42.2426 -165.58
lowerback 24.4672 -0.886108 6.30748
upperback 3.16411 0.299582 3.48829
thorax -10.1084 -0.280951 0.222406
lowerneck -19.7806 -7.75809 -8.6618
upperneck 10.1332 -9.46409 8.39408
head 7.13154 -4.19497 2.97111
rclavicle -4.17448e-015 2.84262e-014
rhumerus -20.3093 -14.4287 -80.1815
rradius 25.0375
rwrist 14.4559
rhand -31.0974 -18.0476
rfingers 7.12502
rthumb -4.37722 -47.9823
lclavicle -4.17448e-015 2.84262e-014
lhumerus -34.9529 5.79881 81.0201
lradius 53.0934
lwrist -17.9391
lhand -22.4058 10.2829
lfingers 7.12502
lthumb 4.01687 40.2248
rfemur -30.056 -11.3188 21.3174
rtibia 53.2612
rfoot -17.3785 -4.41558
rtoes -27.2252
lfemur -38.7234 -2.53358 -9.54
ltibia 64.2209
lfoot -20.4115 -4.76171
ltoes -4.32092
238
root -12.0987 16.8696 -26.4672 177.013 -40.9833 -165.572
lowerback 24.4022 -0.755563 6.41107
upperback 3.0737 0.500223 3.50034
thorax -10.1667 -0.192969 0.112993
lowerneck -19.7639 -7.50662 -8.38465
upperneck 9.99157 -9.14671 8.12484
head 7.02744 -4.05805 2.88492
rclavicle -5.25785e-014 -3.4191e-014
rhumerus -20.7488 -16.2497 -79.8964
rradius 24.554
rwrist 14.6553
rhand -31.1814 -18.2649
rfingers 7.12502
rthumb -4.45832 -48.198
lclavicle -5.25785e-014 -3.4191e-014
lhumerus -35.3919 5.83656 80.8971
lradius 53.2377
lwrist -17.8079
lhand -22.1448 10.2569
lfingers 7.12502
lthumb 4.26893 40.1939
rfemur -29.5599 -12.1606 21.9987
rtibia 52.3659
rfoot -18.1862 -3.64844
rtoes -25.7652
lfemur -38.1556 -1.99868 -9.13295
ltibia 64.2404
lfoot -20.9726 -4.23885
ltoes -4.53055
239
root -12.1104 16.8734 -26.5448 177.131 -39.6411 -165.451
lowerback 24.219 -0.601907 6.58249
upperback 2.97336 0.741462 3.52538
thorax -10.1697 -0.086865 -0.0347246
lowerneck -19.8021 -7.24558 -8.07026
upperneck 9.83936 -8.82329 7.85468
head 6.92861 -3.91581 2.79152
rclavicle -5.46658e-015 -2.68359e-014
rhumerus -21.2274 -17.8888 -79.6111
rradius 24.2271
rwrist 14.5618
rhand -31.2331 -18.4958
rfingers 7.12502
rthumb -4.50825 -48.4278
lclavicle -5.46658e-015 -2.68359e-014
lhumerus -35.7889 5.93247 80.7646
lradius 53.3695
lwrist -17.7267
lhand -21.9062 10.1653
lfingers 7.12502
lthumb 4.49932 40.0975
rfemur -29.3137 -12.8628 22.8425
rtibia 51.5834
rfoot -18.671 -3.04998
rtoes -24.1362
lfemur -37.6342 -1.39126 -8.59585
ltibia 64.1447
lfoot -21.476 -3.80061
ltoes -4.8475
240
root -12.1244 16.8881 -26.6217 177.34 -38.2102 -165.271
lowerback 23.9223 -0.419704 6.77636
upperback 2.86766 1.01735 3.55669
thorax -10.1144 0.0367678 -0.19917
lowerneck -19.8883 -6.96818 -7.72447
upperneck 9.68595 -8.48357 7.57692
head 6.83628 -3.76427 2.69119
rclavicle -6.85807e-014 1.37161e-014
rhumerus -21.7092 -19.3487 -79.3305
rradius 24.0066
rwrist 14.2418
rhand -31.228 -18.7202
rfingers 7.12502
rthumb -4.50326 -48.6523
lclavicle -6.85807e-014 1.37161e-014
lhumerus -36.1354 6.10721 80.6206
lradius 53.4543
lwrist -17.6799
lhand -21.6901 10.0034
lfingers 7.12502
lthumb 4.70804 39.9311
rfemur -29.2469 -13.2773 23.7378
rtibia 50.8905
rfoot -18.9079 -2.51663
rtoes -22.6189
lfemur -37.1265 -0.711174 -7.9797
ltibia 63.9117
lfoot -21.9463 -3.43937
ltoes -5.154
241
root -12.1422 16.9118 -26.6988 177.641 -36.7483 -165.143
lowerback 23.5375 -0.22054 6.93443
upperback 2.77443 1.29581 3.57323
thorax -9.9958 0.165613 -0.359243
lowerneck -20.0068 -6.682 -7.37259
upperneck 9.53243 -8.13378 7.29891
head 6.75044 -3.60716 2.58986
rclavicle 9.93923e-016 3.61788e-014
rhumerus -22.1719 -20.6397 -79.051
rradius 23.8403
rwrist 13.8131
rhand -31.1619 -18.9448
rfingers 7.12502
rthumb -4.43951 -48.8783
lclavicle 9.93923e-016 3.61788e-014
lhumerus -36.4231 6.3384 80.48
lradius 53.466
lwrist -17.6445
lhand -21.4908 9.77911
lfingers 7.12502
lthumb 4.90049 39.7024
rfemur -29.2401 -13.3806 24.5083
rtibia 50.2695
rfoot -18.9874 -1.9382
rtoes -21.2285
lfemur -36.5452 -0.0154085 -7.41025
ltibia 63.5143
lfoot -22.4043 -3.112
ltoes -5.40174
242
root -12.163 16.9421 -26.7761 178.03 -35.2947 -165.146
lowerback 23.0987 -0.0124837 6.9897
upperback 2.69749 1.55218 3.55936
thorax -9.83104 0.290894 -0.485655
lowerneck -20.1283 -6.38554 -7.02497
upperneck 9.37984 -7.77211 7.02646
head 6.66736 -3.44409 2.49192
rclavicle -6.29153e-014 1.45113e-014
rhumerus -22.6069 -21.775 -78.7784
rradius 23.6926
rwrist 13.3691
rhand -31.0291 -19.1819
rfingers 7.12502
rthumb -4.31123 -49.118
lclavicle -6.29153e-014 1.45113e-014
lhumerus -36.652 6.63158 80.3413
lradius 53.3724
lwrist -17.6074
lhand -21.3011 9.50075
lfingers 7.12502
lthumb 5.08366 39.4198
rfemur -29.225 -13.1616 25.0382
rtibia 49.7153
rfoot -18.966 -1.30969
rtoes -20.0588
lfemur -35.8447 0.66622 -6.98652
ltibia 62.9428
lfoot -22.8406 -2.76771
ltoes -5.58158
